# xmcd CD database file
#
# Track frame offsets:
#	150
#	15501
#	41178
#	62033
#	88182
#	106809
#	134682
#	155962
#	179997
#	192853
#	214582
#	234188
#	251847
#	265772
#
# Disc length: 3787 seconds
#
# Revision: 0
# Processed by: cddbd v1.5.2PL0 Copyright (c) Steve Scherf et al.
# Submitted via: CDex 1.70beta2
#
DISCID=ce0ec90e
DTITLE=Christianai 12 - Rhythm Crazy
DYEAR=2010
DGENRE=Jazz
TTITLE0=I Got Rhythm
TTITLE1=Stars Fell On Alabama
TTITLE2=Blue Lou
TTITLE3=It's The Talk Of The Town
TTITLE4=Caravan
TTITLE5=Two Sleepy People
TTITLE6=Saratoga Shout
TTITLE7=The Day You Cama Along
TTITLE8=Brenning
TTITLE9=The Mooche
TTITLE10=Rhythm Crazy
TTITLE11=Song Of The Swanee
TTITLE12=Moten Swing
TTITLE13=Yours And Mine
EXTD=YEAR: 2010
EXTT0=
EXTT1=
EXTT2=
EXTT3=
EXTT4=
EXTT5=
EXTT6=
EXTT7=
EXTT8=
EXTT9=
EXTT10=
EXTT11=
EXTT12=
EXTT13=
PLAYORDER=
